<?xml version="1.0" encoding="UTF-8"?>
<svg xmlns="http://www.w3.org/2000/svg" xmlns:xlink="http://www.w3.org/1999/xlink" width="40px" height="40px" viewBox="0 0 40 40" version="1.1">
<g id="surface1">
<path style=" stroke:none;fill-rule:nonzero;fill:rgb(0%,0%,0%);fill-opacity:1;" d="M 16.898438 4.019531 C 10.238281 5.339844 5.460938 9.839844 3.78125 16.359375 C 3.261719 18.421875 3.28125 18.699219 4 19 C 4.339844 19.140625 5.519531 19.738281 6.660156 20.339844 C 9.121094 21.621094 12.261719 22.839844 14.941406 23.519531 L 16.898438 24.019531 L 17.78125 23.058594 C 19.761719 20.898438 21.398438 17.738281 22.160156 14.601562 C 22.878906 11.640625 23 10.601562 23 7.378906 C 23 4.578125 22.960938 4.21875 22.660156 4.101562 C 22.078125 3.859375 17.980469 3.800781 16.898438 4.019531 Z M 16.898438 4.019531 "/>
<path style=" stroke:none;fill-rule:nonzero;fill:rgb(0%,0%,0%);fill-opacity:1;" d="M 34.140625 4.960938 C 33.601562 5.539062 33.699219 6.5 34.339844 7 C 35.679688 8.058594 37.398438 6.199219 36.199219 5 C 35.679688 4.480469 34.578125 4.480469 34.140625 4.960938 Z M 36.078125 5.121094 C 36.800781 5.820312 36.261719 7.058594 35.238281 7.058594 C 34.441406 7.058594 34 6.679688 34 5.980469 C 34 5.28125 34.480469 4.800781 35.199219 4.800781 C 35.519531 4.800781 35.921875 4.941406 36.078125 5.121094 Z M 36.078125 5.121094 "/>
<path style=" stroke:none;fill-rule:nonzero;fill:rgb(0%,0%,0%);fill-opacity:1;" d="M 34.621094 5.941406 C 34.640625 6.480469 34.679688 6.738281 34.738281 6.539062 C 34.78125 6.359375 34.878906 6.199219 34.941406 6.199219 C 35.019531 6.199219 35.261719 6.359375 35.480469 6.539062 C 35.898438 6.898438 35.898438 6.898438 35.519531 6.441406 C 35.300781 6.199219 35.238281 6 35.359375 6 C 35.5 6 35.601562 5.898438 35.601562 5.761719 C 35.601562 5.578125 35.539062 5.578125 35.359375 5.761719 C 35.21875 5.898438 35.039062 6 34.960938 6 C 34.699219 6 34.78125 5.238281 35.058594 5.140625 C 35.199219 5.078125 35.160156 5.019531 34.960938 5.019531 C 34.660156 5 34.601562 5.160156 34.621094 5.941406 Z M 34.621094 5.941406 "/>
<path style=" stroke:none;fill-rule:nonzero;fill:rgb(0%,0%,0%);fill-opacity:1;" d="M 25.519531 7.039062 C 25.058594 13.820312 22.960938 19.359375 19.378906 23.28125 C 18.839844 23.878906 18.460938 24.398438 18.539062 24.460938 C 18.761719 24.578125 19.78125 24.761719 22.460938 25.101562 L 24.820312 25.398438 L 25.660156 24.820312 C 28.839844 22.621094 31.078125 19.660156 32.039062 16.398438 C 32.519531 14.761719 32.738281 11.339844 32.421875 10.359375 C 32.101562 9.398438 29.660156 7.078125 27.898438 6.058594 C 25.558594 4.699219 25.679688 4.640625 25.519531 7.039062 Z M 25.519531 7.039062 "/>
<path style=" stroke:none;fill-rule:nonzero;fill:rgb(0%,0%,0%);fill-opacity:1;" d="M 33.621094 13.800781 C 33.621094 14.839844 33.480469 16.378906 33.300781 17.199219 C 32.761719 19.839844 30.78125 23.320312 28.898438 24.980469 C 28.519531 25.320312 28.199219 25.640625 28.199219 25.699219 C 28.199219 25.761719 29.699219 25.78125 31.539062 25.761719 L 34.878906 25.699219 L 35.28125 24.300781 C 35.578125 23.21875 35.679688 22.261719 35.679688 20.101562 C 35.699219 16.980469 35.320312 15.21875 34.21875 13.039062 L 33.621094 11.898438 Z M 33.621094 13.800781 "/>
<path style=" stroke:none;fill-rule:nonzero;fill:rgb(0%,0%,0%);fill-opacity:1;" d="M 3.480469 21.839844 C 4.101562 24.859375 4.320312 25.558594 5.160156 27.21875 C 5.679688 28.238281 6.261719 29.160156 6.441406 29.28125 C 7.160156 29.71875 12.261719 27.699219 14.539062 26.078125 C 15.578125 25.339844 15.679688 25.441406 13.5 25 C 11.878906 24.660156 7.039062 23 5.21875 22.179688 C 4.300781 21.738281 3.5 21.398438 3.460938 21.398438 C 3.421875 21.398438 3.441406 21.601562 3.480469 21.839844 Z M 3.480469 21.839844 "/>
<path style=" stroke:none;fill-rule:nonzero;fill:rgb(0%,0%,0%);fill-opacity:1;" d="M 16.199219 26.320312 C 14.421875 27.578125 10.859375 29.078125 7.839844 29.820312 C 7.378906 29.921875 7.039062 30.101562 7.101562 30.199219 C 7.28125 30.480469 8.738281 30.441406 11.398438 30.121094 C 15.101562 29.640625 17.839844 28.921875 20.960938 27.558594 C 22.960938 26.679688 23.058594 26.398438 21.398438 26.398438 C 20.898438 26.398438 19.738281 26.261719 18.800781 26.101562 C 17.859375 25.941406 17.058594 25.800781 17 25.820312 C 16.941406 25.820312 16.578125 26.039062 16.199219 26.320312 Z M 16.199219 26.320312 "/>
<path style=" stroke:none;fill-rule:nonzero;fill:rgb(0%,0%,0%);fill-opacity:1;" d="M 30 26.699219 L 26.699219 26.921875 L 25.121094 27.980469 C 21.800781 30.21875 17.199219 31.898438 11.898438 32.78125 L 9.898438 33.121094 L 11.339844 33.980469 C 12.140625 34.460938 13.621094 35.121094 14.640625 35.460938 C 17.019531 36.238281 20.640625 36.441406 22.898438 35.921875 C 26.339844 35.121094 29 33.621094 31.238281 31.238281 C 32.398438 30.019531 34.398438 27.039062 34.398438 26.558594 C 34.398438 26.378906 34.480469 26.378906 30 26.699219 Z M 30 26.699219 "/>
</g>
</svg>
