<?xml version="1.0" standalone="no"?>
<!DOCTYPE svg PUBLIC "-//W3C//DTD SVG 20010904//EN"
 "http://www.w3.org/TR/2001/REC-SVG-20010904/DTD/svg10.dtd">
<svg version="1.0" xmlns="http://www.w3.org/2000/svg"
 width="200.000000pt" height="200.000000pt" viewBox="0 0 200.000000 200.000000"
 preserveAspectRatio="xMidYMid meet">

<g transform="translate(0.000000,200.000000) scale(0.100000,-0.100000)"
fill="#000000" stroke="none">
<path d="M845 1799 c-333 -66 -572 -291 -656 -617 -26 -103 -25 -117 11 -132
17 -7 76 -37 133 -67 123 -64 280 -125 414 -159 l98 -25 44 48 c99 108 181
266 219 423 36 148 42 200 42 361 0 140 -2 158 -17 164 -29 12 -234 15 -288 4z"/>
<path d="M1707 1752 c-27 -29 -22 -77 10 -102 67 -53 153 40 93 100 -26 26
-81 26 -103 2z m97 -8 c36 -35 9 -97 -42 -97 -40 0 -62 19 -62 54 0 35 24 59
60 59 16 0 36 -7 44 -16z"/>
<path d="M1731 1703 c1 -27 3 -40 6 -30 2 9 7 17 10 17 4 0 16 -8 27 -17 21
-18 21 -18 2 5 -11 12 -14 22 -8 22 7 0 12 5 12 12 0 9 -3 9 -12 0 -7 -7 -16
-12 -20 -12 -13 0 -9 38 5 43 7 3 5 6 -5 6 -15 1 -18 -7 -17 -46z"/>
<path d="M1276 1648 c-23 -339 -128 -616 -307 -812 -27 -30 -46 -56 -42 -59
11 -6 62 -15 196 -32 l118 -15 42 29 c159 110 271 258 319 421 24 82 35 253
19 302 -16 48 -138 164 -226 215 -117 68 -111 71 -119 -49z"/>
<path d="M1681 1310 c0 -52 -7 -129 -16 -170 -27 -132 -126 -306 -220 -389
-19 -17 -35 -33 -35 -36 0 -3 75 -4 167 -3 l167 3 20 70 c15 54 20 102 20 210
1 156 -18 244 -73 353 l-30 57 0 -95z"/>
<path d="M174 908 c31 -151 42 -186 84 -269 26 -51 55 -97 64 -103 36 -22 291
79 405 160 52 37 57 32 -52 54 -81 17 -323 100 -414 141 -46 22 -86 39 -88 39
-2 0 -1 -10 1 -22z"/>
<path d="M810 684 c-89 -63 -267 -138 -418 -175 -23 -5 -40 -14 -37 -19 9 -14
82 -12 215 4 185 24 322 60 478 128 100 44 105 58 22 58 -25 0 -83 7 -130 15
-47 8 -87 15 -90 14 -3 0 -21 -11 -40 -25z"/>
<path d="M1500 665 l-165 -11 -79 -53 c-166 -112 -396 -196 -661 -240 l-100
-17 72 -43 c40 -24 114 -57 165 -74 119 -39 300 -49 413 -23 172 40 305 115
417 234 58 61 158 210 158 234 0 9 4 9 -220 -7z"/>
</g>
</svg>
