<?xml version="1.0" standalone="no"?>
<!DOCTYPE svg PUBLIC "-//W3C//DTD SVG 20010904//EN"
 "http://www.w3.org/TR/2001/REC-SVG-20010904/DTD/svg10.dtd">
<svg version="1.0" xmlns="http://www.w3.org/2000/svg"
 width="42.000000pt" height="42.000000pt" viewBox="0 0 42.000000 42.000000"
 preserveAspectRatio="xMidYMid meet">

<g transform="translate(0.000000,42.000000) scale(0.100000,-0.100000)"
fill="#000000" stroke="none">
<path d="M0 210 l0 -210 210 0 210 0 0 210 0 210 -210 0 -210 0 0 -210z m250
146 c0 -60 -19 -122 -51 -167 -25 -35 -37 -34 -131 8 -64 28 -69 41 -43 98 33
68 107 114 188 115 l37 0 0 -54z m87 8 c26 -20 33 -32 33 -60 0 -48 -21 -93
-62 -131 -29 -28 -38 -32 -71 -26 -37 6 -46 16 -27 28 22 13 62 110 67 161 3
30 10 54 16 54 6 0 25 -11 44 -26z m70 -128 c3 -24 3 -56 -1 -70 -5 -22 -12
-26 -46 -26 l-40 0 30 47 c19 29 30 60 30 82 0 50 21 25 27 -33z m-308 -76
l54 -17 -24 -17 c-13 -9 -30 -16 -39 -17 -10 0 -11 -2 -3 -6 7 -2 30 6 52 18
33 18 46 20 73 12 l33 -9 -50 -17 c-27 -9 -70 -18 -94 -19 -41 -3 -47 0 -68
31 -28 42 -31 77 -5 66 9 -4 41 -15 71 -25z m291 -40 c0 -23 -78 -87 -123 -99
-51 -15 -123 -8 -153 13 -17 13 -15 15 26 25 25 6 70 24 100 40 55 29 150 42
150 21z"/>
</g>
</svg>
