<?xml version="1.0" standalone="no"?>
<!DOCTYPE svg PUBLIC "-//W3C//DTD SVG 20010904//EN"
 "http://www.w3.org/TR/2001/REC-SVG-20010904/DTD/svg10.dtd">
<svg version="1.0" xmlns="http://www.w3.org/2000/svg"
 width="56.000000pt" height="51.000000pt" viewBox="0 0 56.000000 51.000000"
 preserveAspectRatio="xMidYMid meet">

<g transform="translate(0.000000,51.000000) scale(0.100000,-0.100000)"
fill="#000000" stroke="none">
<path d="M175 441 c-57 -33 -93 -81 -102 -135 l-6 -36 65 -29 c94 -43 117 -43
145 -2 30 45 53 123 53 183 l0 48 -52 0 c-40 0 -65 -7 -103 -29z"/>
<path d="M357 396 c-6 -61 -40 -146 -68 -172 -27 -25 -24 -31 21 -38 32 -5 46
-2 69 15 36 27 67 82 76 137 6 39 4 45 -28 77 -50 50 -63 46 -70 -19z"/>
<path d="M467 315 c-3 -30 -16 -63 -36 -91 l-31 -44 45 0 c43 0 44 1 51 35 7
38 -1 112 -15 133 -5 9 -10 -3 -14 -33z"/>
<path d="M73 203 c3 -19 14 -46 23 -60 15 -24 20 -25 78 -20 33 2 81 13 106
23 l45 18 -35 8 c-28 6 -46 2 -88 -19 -29 -14 -55 -24 -57 -21 -3 3 13 13 35
23 42 19 52 35 23 35 -10 0 -44 11 -77 25 l-58 24 5 -36z"/>
<path d="M345 145 c-38 -24 -97 -46 -160 -60 l-30 -7 35 -18 c46 -25 132 -25
186 -1 36 17 104 84 104 103 0 19 -96 7 -135 -17z"/>
</g>
</svg>
